<svg version="1" xmlns="http://www.w3.org/2000/svg" width="684" height="684" viewBox="0 0 513.000000 513.000000"><path d="M12.9 10.2c0 2.9-.1 27.7-.1 55.2l-.1 49.9 14.2 5.7c7.8 3.1 14.4 5.9 14.7 6.2.3.3-6.1.5-14.1.4l-14.5-.1v116.1l35.8-.2c30.2-.1 36.7-.4 42.1-1.8 17.2-4.6 24.2-12.7 24.7-28.7.5-14.1-3.8-21.9-14.9-26.9-5.8-2.6-5.9-2.7-3.2-3.4 8.1-2.1 15-10.7 15.8-20 .3-2.6.7-5 1-5.3.4-.3 3.7.7 7.4 2.2 3.7 1.5 7.8 3.1 9 3.6 2 .7 2.1 1.2 1.2 3.6-1.8 4.7-2.2 8.3-2.2 19.8 0 12.3 1.7 20.6 6.1 29.2 10.3 20.3 30.7 30.6 58.7 29.8 23.7-.7 41.4-9.5 52.2-25.8l4.9-7.5 15.9 6.4c9.9 4 16.8 7.3 18.1 8.8 8.8 10 25 17.1 41.5 18.1 5.9.3 10.1 1.5 20.7 5.6 7.3 2.9 12.9 5.6 12.5 6-.5.4-8.9 3.9-18.8 7.8-9.9 4-18.9 7.6-20 8.1-8.1 3.6-11.5 4.8-11.9 4.1-.3-.4-12.9-.8-28.1-.8H254v24.2l-16.6 6.7c-16.3 6.6-16.5 6.7-17.3 4.5-.5-1.2-3-9.5-5.7-18.4-4.5-14.8-5.1-16.3-7.4-16.7-1.4-.3-14-.5-28-.4l-25.6.1-11.4 37.2-11.5 37.3-4.5 1.6c-2.5.9-4.7 1.6-5 1.6-.3 0-.4-1.8-.2-4 .3-2.9 0-4-.9-4.1-5.2-.4-41 .1-41.8.5-.5.3-1.2 2.1-1.5 3.9-1.1 5.9-6.8 9.6-14.1 9.2-6.5-.4-10-2.8-13.1-9-2.3-4.9-2.7-6.8-2.7-15.3 0-12.6 1.4-17.7 6.4-22.5 3.5-3.2 4.6-3.7 8.9-3.7 6.3 0 10.6 3.3 12.1 9.6l1.1 4.3 22.2-.2 22.1-.2-.3-4c-.6-6.4-5-18.3-8.9-23.9-9.1-13-24.8-19.7-46.8-19.8-27.7-.2-49 12.5-58.2 34.7-6.7 16-5.8 40.6 2 56.2 4 8.2 12.5 16.8 20.5 21l6 3.1-9.1 3.6c-5.1 2-9.8 4-10.6 4.5-1.1.7-1.4 10.3-1.5 55.5 0 30 .2 54.6.5 54.6s6.1-2.3 13-5.1c6.8-2.8 36.9-15 66.9-27.1 53.5-21.6 61.5-24.9 109-44.3 12.9-5.3 24-9.7 24.5-9.9.6-.2 2.2-.8 3.8-1.4 2.4-1 20.8-8.5 63.2-25.7 7.7-3.1 15-6.1 16.3-6.6 1.9-.7 2.4-.5 3.2 1.6.5 1.4 1.3 2.5 1.7 2.6 4.6.4 13.4.1 14-.4.4-.4 1.8-3.7 3.2-7.3l2.6-6.6 8.3-3.3c4.5-1.8 8.4-3 8.5-2.6.2.3.3 5 .2 10.3 0 8.1.2 9.8 1.5 9.9.8 0 10.5.1 21.6.2l20.1.2.1-19.3c0-10.7.2-19.5.4-19.7.8-.7 17.3-7.3 17.7-7 .2.2.4 10.5.4 22.9.1 22.1.1 22.6 2.1 22.7 11.4.4 39 .2 39.9-.3.8-.5 1.2-5.8 1.3-16.5.1-8.7.2-16.4.3-17.1.1-.8 2.7-1.2 9.4-1.2 22.7-.1 38-8 43.8-22.6 1.9-4.9 2.3-7.8 2.3-16.9.1-14.2-2.3-21.2-9.8-28.8l-5-5.2-.1-40.7c0-22.3-.2-40.8-.5-41-.3-.3-4.8-2.2-10-4.3-5.2-2.1-9.9-4.2-10.5-4.7-.5-.5-1-7.5-1-16.3l-.1-15.5 4.6-.1c2.5 0 8.8-.1 14-.1l9.6-.1-.1-15.9c0-10.8-.4-16.1-1.2-16.6-1.9-1.2-97.4-.7-98.1.5-.5.8-.7 27.3-.3 31.5.1.4 5.6.7 12.4.7 6.7-.1 13 0 13.9 0 1.5.1 1.7 1.1 1.4 6.8-.3 7.9.4 7.7-11.1 2.9-4.4-1.8-12.2-5-17.3-7.1-8.7-3.6-9.3-4-11.5-8.4-3.7-7.6-14.2-17.5-23.1-21.7-11.8-5.6-20.8-7.4-35.6-7-6.9.2-13.6.6-15 1-1.8.4-9.3-2.2-27.5-9.5-13.7-5.6-26.3-10.7-28-11.5-1.6-.7-10-4-18.5-7.4-8.5-3.4-16.8-6.8-18.5-7.5-2.9-1.3-82.2-33.4-104-42.1-6-2.5-11.9-4.9-13-5.4-1.1-.5-22.2-9.1-47-19.1-24.7-10-45.8-18.5-46.7-19-1.6-.9-1.8-.4-1.9 4.3zM50 28.4C64.6 34.3 77.4 39.5 78.5 40c1.1.5 11 4.6 22 9s20.9 8.4 22 8.9c1.1.5 5.4 2.3 9.5 3.9 4.1 1.7 30.5 12.3 58.5 23.7 28.1 11.3 60.5 24.4 72 29.1 11.6 4.7 22.4 9.1 24 9.8 1.7.7 6.3 2.6 10.2 4.2 4 1.6 7.3 3.2 7.3 3.5 0 .3-1.9 1.5-4.2 2.5-6 2.7-18.7 15.6-22.1 22.5-7 14.3-8.4 35.1-3.5 49.7 2.1 6.1 2.2 7.2.9 6.6-.9-.3-4.3-1.6-7.6-2.9-5.1-2-12.3-5.2-13.3-6.1-.2-.1.1-2 .7-4.1 2.7-10 1.5-29.1-2.5-39.3-7.3-18.7-25.4-31.5-48.9-34.5-5.8-.7-17.8-.8-21.5 0-1.4.2-3.8.7-5.5 1.1-14.9 2.9-30 12.7-37.7 24.6-3.3 5-3.8 5.4-5.3 4-.6-.5-5.6-2.6-11.2-4.8-8.4-3.2-10.4-4.4-11.4-6.7-1.7-4-8.5-10.4-13.5-12.6-6.3-2.8-14.5-4.3-24.8-4.4-9.1-.1-9.2-.1-30.6-8.8l-21.5-8.7-.2-45.4c-.1-24.9.1-45.9.3-46.7.2-.7 1-1.1 1.7-.8.6.3 13.1 5.3 27.7 11.1zm17.1 127.5c4.6.3 7.6 8.4 4.6 12.5-1.4 2-7.9 3.3-13.4 2.8l-3.1-.3-.1-7.2c0-3.9.4-7.4 1-7.7.9-.6 3.9-.6 11-.1zm132.4 5.1c6.2 2 10.2 8.6 11.4 18.6.4 3.6.4 6.7 0 7-.9.5-32.8-12.2-34.2-13.6-1.1-1 1.4-5.9 4.8-9 4.9-4.6 10.4-5.5 18-3zm141.1-.5c3.3.7 7.3 4.4 9.6 8.8 1.8 3.4 2.3 6.2 2.5 15.2.2 9.8 0 11.5-2.1 16-4.1 8.7-10.4 12.4-19 11.1-6.2-1-11.7-6.2-13.6-13-1.6-5.9-1.7-19.5-.1-25.4 1.4-5 6.2-10.8 10.5-12.6 2.9-1.2 7.3-1.2 12.2-.1zm76.9 17c4.4 1.8 9.4 3.8 11.1 4.5l3.1 1.1-.1 29.1c-.1 15.9.2 29.5.6 30.1.5.9 7 1.2 22 1.2h21.3l-.1-20.5c0-11.3.1-20.8.3-21.2.2-.4 3.4.6 7.1 2.2l6.7 2.8.3 36.7.2 36.6-2.2-.7c-7.3-2.3-18.5-3-45.3-3l-29 .1-.2 22.5c-.1 12.4-.2 26.1-.3 30.6v8.1l-8.7 3.7c-4.7 2-8.8 3.4-9 3.2-.3-.2-.5-15.6-.6-34.3l-.2-33.8-27.2-.1-27.2-.1-4.9 14.6c-2.8 8-6.3 18.3-7.9 22.9l-2.8 8.2-6.1-18.2c-6-18-6-18.3-4-19.4 1.2-.7 16.3-6.9 33.6-13.9s31.8-13 32.3-13.4c.4-.4-5.8-3.4-13.9-6.6-10.4-4.3-14-6.2-12.7-6.7 1-.3 5-1.8 8.9-3.3 13.2-5 25.3-16.2 30.4-28.1 4.7-10.9 6.8-29.1 4.6-39.7l-.8-3.7 6.3 2.6c3.5 1.4 10 4.1 14.4 5.9zm-219.2 13c7.3 2.9 11.7 5.2 11.7 6.1 0 2.6-3.9 9.1-7 11.7-6.2 5.3-17.7 4.3-23.1-1.9-3.5-4-6.9-19.7-5.2-24 .5-1.3.4-1.3 23.6 8.1zm-128.7 7.6c2.8 1.5 4.5 6.7 3.5 10.6-1.1 4.2-4.9 6.3-11.6 6.6l-6 .2-.2-8.9c-.2-5.8.1-9.2.8-9.7 1.7-1 10.9-.3 13.5 1.2zm399.2 112.5c4.2 2.8 3 3.8-10.8 8.9-1.3.4-1.5-.4-1.4-4.7.1-2.9.2-5.6.3-5.9.2-1.2 9.5.2 11.9 1.7zm-214.6 40.1l.3 41.8 10.8-.3c10.9-.2 13.3.6 7.5 2.5-1.8.6-23.3 9.3-47.8 19.2-24.5 10-53.5 21.8-64.5 26.2-11 4.5-21.3 8.7-23 9.4-1.6.7-13.8 5.7-27 11S77.2 474 65.9 478.6c-20.9 8.5-26.2 10.6-26.6 10.5-.2 0-2.9 1.1-6 2.6-3.2 1.4-7.4 3.1-9.4 3.8l-3.6 1.3v-93.4l13.1-5.3c11.2-4.4 13.7-5.1 17.1-4.5 6.6 1.1 21.5.8 29-.6 15.1-2.7 29.2-12.2 35.1-23.4 2.4-4.7 3.6-5.8 7.6-7.5 3.3-1.4 4.8-1.6 4.8-.8 0 .7-2 7.7-4.5 15.6-2.5 8-4.3 14.7-4 14.9.4.4 31.1.6 38.1.3 1.7-.1 2.2-1.2 3.3-6.4.7-3.5 1.6-6.9 2-7.6.8-1.2 8.9-1.5 30.2-1.1 2.3 0 2.7.6 4.3 7.5 1.3 5.5 2.2 7.5 3.4 7.6 7.3.4 43.4 0 43.9-.4.5-.6-1.8-8.5-15.6-53.6-2.8-9.1-4.9-16.6-4.7-16.8.5-.5 29-12.2 29.8-12.3.4 0 .9 18.8 1 41.7zm-73.3-29.2l1.9 7.7-4.5 1.9c-2.5 1-4.6 1.9-4.8 1.9-.5 0-.1-1.5 2.4-11.4 1.2-4.4 2.1-8.1 2.1-8.4 0-2.1 1.4 1.8 2.9 8.3zm289.1 3.4c-1.1 2.1-3.7 3.2-8.2 3.6-4.4.4-3.3-1 2.5-3.3 6.6-2.6 7-2.6 5.7-.3zM297.4 346c2.1 5.8 4.1 11.4 4.6 12.5 3.1 7.2 7.2 20.7 6.4 21.4-1 .9-14 6.1-15.2 6.1-.5 0-.9-12-.9-26.6 0-14.7.3-26 .7-25.3.4.8 2.4 6.1 4.4 11.9zm54.1 1.7v14.8l-6.4 2.8c-3.5 1.5-6.5 2.6-6.7 2.5-.1-.2 2.4-7.5 5.7-16.3 3.2-8.8 6.1-16.6 6.4-17.3.2-.6.6-1.2.7-1.2.2 0 .3 6.6.3 14.7zM185.9 342c.6 2.8 1.1 5.2 1.1 5.4 0 .1-3.8.3-8.6.3l-8.5.1.3-2.6c.2-2.2 1.4-3.1 6.8-5.4 3.6-1.5 6.8-2.8 7.2-2.8.3 0 1.1 2.3 1.7 5z"/></svg>